<?xml version="1.0" encoding="UTF-8" standalone="no"?>
<!-- Created with Inkscape (http://www.inkscape.org/) -->

<svg
   xmlns:dc="http://purl.org/dc/elements/1.1/"
   xmlns:cc="http://creativecommons.org/ns#"
   xmlns:rdf="http://www.w3.org/1999/02/22-rdf-syntax-ns#"
   xmlns:svg="http://www.w3.org/2000/svg"
   xmlns="http://www.w3.org/2000/svg"
   version="1.1"
   width="744.09448"
   height="1052.3622"
   id="svg2">
  <defs
     id="defs4" />
  <metadata
     id="metadata7">
    <rdf:RDF>
      <cc:Work
         rdf:about="">
        <dc:format>image/svg+xml</dc:format>
        <dc:type
           rdf:resource="http://purl.org/dc/dcmitype/StillImage" />
        <dc:title></dc:title>
      </cc:Work>
    </rdf:RDF>
  </metadata>
  <g
     id="layer1">
    <path
       d="m 359.83018,711.38251 c -12.92259,-9.38755 -24.78745,-18.01037 -26.36636,-19.16186 -1.5789,-1.15144 -2.87074,-2.21354 -2.87074,-2.36019 0,-0.14665 11.92302,-8.93701 26.4956,-19.53416 l 26.4956,-19.26751 26.47424,19.25724 c 14.56083,10.59149 26.47424,19.38441 26.47424,19.53977 0,0.2977 -51.84253,38.07142 -52.70571,38.40265 -0.2814,0.10798 -10.80663,-7.29395 -23.99687,-16.87594 z m -71.40549,-51.85473 c -17.59004,-12.80533 -32.06137,-23.36186 -32.15852,-23.45902 -0.0971,-0.0972 10.21083,-7.71922 22.90663,-16.93798 25.88439,-18.79534 26.60301,-19.31917 28.56562,-20.82269 0.77426,-0.59315 1.6077,-0.9963 1.85209,-0.89589 0.24439,0.10041 7.44525,5.29213 16.00192,11.53718 10.69111,7.80288 15.53683,11.55058 15.49127,11.98112 -0.16084,1.51957 -19.97477,61.91668 -20.30671,61.89919 -0.20373,-0.0107 -14.76226,-10.49658 -32.3523,-23.30191 z m 152.37324,7.31114 c -2.84928,-8.81041 -7.29038,-22.47914 -9.86913,-30.37495 -2.57875,-7.89585 -4.78967,-14.75866 -4.91316,-15.25065 -0.20093,-0.80059 0.22665,-1.21869 4.06992,-3.97963 2.36195,-1.69678 5.15386,-3.71122 6.20426,-4.47651 1.05041,-0.76528 2.82661,-2.05604 3.94712,-2.86837 1.12052,-0.81234 2.95409,-2.14585 4.0746,-2.96335 1.12052,-0.81752 2.95409,-2.14421 4.07461,-2.94821 1.12051,-0.804 3.66587,-2.64427 5.65634,-4.0895 2.16594,-1.57264 3.80195,-2.52056 4.0746,-2.36089 0.25056,0.14674 10.79024,7.76875 23.42151,16.9378 12.63128,9.16904 24.02912,17.43282 25.32855,18.36398 1.29943,0.93115 2.76288,2.02637 3.25217,2.43383 l 0.88956,0.74084 -32.10347,23.33633 c -17.6569,12.835 -32.28876,23.37726 -32.51522,23.42727 -0.23936,0.0528 -2.58079,-6.61612 -5.59226,-15.92799 z m -64.30264,-31.39491 c -12.59131,-3.09806 -21.61635,-13.92169 -22.45331,-26.92798 -0.76084,-11.82344 5.70839,-23.03397 16.27214,-28.198 5.10146,-2.49382 7.94249,-3.1727 13.2488,-3.1659 5.16796,0.007 8.14423,0.67462 12.76225,2.86434 7.35682,3.48838 12.84925,9.75423 15.47008,17.64852 1.07979,3.25247 1.17007,3.91172 1.19211,8.70484 0.027,5.87521 -0.44789,8.21318 -2.58913,12.74654 -4.01215,8.49452 -10.96553,14.19459 -19.94048,16.34639 -3.95282,0.94772 -10.06792,0.93949 -13.96246,-0.0189 z M 261.6402,562.86806 c -6.1835,-4.46975 -20.80827,-15.09612 -32.49948,-23.61418 L 207.88394,523.7665 185.19605,476.53815 c -12.47835,-25.97559 -22.64112,-47.28037 -22.58396,-47.34395 0.077,-0.0857 48.09773,34.65562 65.93071,47.69855 1.01865,0.74503 2.76887,2.02136 3.88939,2.83628 1.12051,0.81493 2.95409,2.1558 4.07461,2.97974 1.12051,0.82393 24.37353,17.71701 51.67337,37.54018 49.00156,35.58138 51.36205,37.29687 55.37756,40.2458 1.12052,0.82289 4.65443,3.38457 7.85314,5.69261 3.19871,2.30805 5.73088,4.33394 5.62702,4.50198 -0.10385,0.16804 -19.08121,0.30552 -42.1719,0.30552 l -41.98308,0 -11.24271,-8.1268 z m 148.28417,7.78505 c 0.0679,-0.18796 15.87551,-11.78563 35.12802,-25.7726 19.25249,-13.98696 36.17136,-26.27874 37.59747,-27.31505 1.42611,-1.03632 3.50971,-2.55583 4.63023,-3.3767 1.12052,-0.82086 2.95409,-2.15924 4.0746,-2.97416 1.12052,-0.81492 2.87074,-2.09127 3.8894,-2.83633 3.8635,-2.82584 104.92013,-76.23358 106.78883,-77.57162 1.07821,-0.77204 2.043,-1.32108 2.14401,-1.2201 0.25896,0.25897 -44.61368,93.67637 -45.354,94.41957 -0.48417,0.48601 -41.91392,30.65272 -60.55645,44.09362 l -4.01553,2.89512 -42.22503,0 c -25.63079,0 -42.1765,-0.1343 -42.10155,-0.34175 z m -89.16725,-41.82197 c -22.01378,-16.028 -61.59233,-44.81054 -87.95234,-63.96116 -26.36002,-19.15064 -55.58061,-40.4034 -64.93467,-47.22836 L 150.86275,405.2326 128.3059,358.22646 c -12.40625,-25.85339 -22.55682,-47.0823 -22.55682,-47.17539 0,-0.484 2.7824,1.46721 21.95329,15.39509 11.45652,8.32332 35.16523,25.54996 52.68602,38.28145 47.91052,34.81415 194.649,141.43368 196.17106,142.53702 l 1.33095,0.96479 -1.24213,3.87915 c -8.54614,26.68945 -14.93879,45.74627 -15.36387,45.80042 -0.27621,0.0352 -18.51349,-13.04983 -40.52728,-29.07785 z m 82.86815,23.57816 c -7.54306,-23.1072 -14.13565,-43.59503 -14.13565,-43.9294 0,-0.21943 5.45904,-4.35711 12.1312,-9.19486 6.67216,-4.83774 13.86295,-10.05962 15.97953,-11.60418 2.11658,-1.54456 4.86694,-3.54554 6.11191,-4.44663 3.56842,-2.58276 5.80714,-4.21263 8.00506,-5.82797 1.12052,-0.82352 22.53996,-16.3821 47.59877,-34.57464 25.05881,-18.19255 46.43659,-33.71968 47.50617,-34.50474 1.06958,-0.78507 2.90315,-2.1263 4.07461,-2.98051 1.17144,-0.85422 2.96334,-2.16234 3.98199,-2.90695 1.01866,-0.7446 23.27155,-16.90627 49.45087,-35.91481 26.17932,-19.00855 48.51556,-35.23484 49.63607,-36.05844 1.12052,-0.82359 2.95409,-2.1642 4.0746,-2.97913 1.12052,-0.81492 2.87074,-2.08936 3.88939,-2.8321 16.9871,-12.38597 19.86825,-14.38891 19.38905,-13.47898 -0.0987,0.18743 -10.32035,21.46643 -22.71477,47.28667 l -22.53533,46.9459 -35.7795,25.99627 c -19.67874,14.29795 -57.03226,41.43907 -83.00785,60.3136 -25.9756,18.87453 -57.038,41.44438 -69.02757,50.15523 -11.98957,8.71085 -22.01886,15.9222 -22.28731,16.02521 -0.34809,0.13358 -1.01971,-1.44118 -2.34124,-5.48954 z M 184.45532,352.55028 c -14.25689,-10.35927 -36.33964,-26.39598 -49.07277,-35.63711 -12.73313,-9.24114 -23.19637,-16.8369 -23.25164,-16.87949 -0.15935,-0.12278 31.93418,-66.85311 32.15443,-66.85697 0.29956,-0.005 66.32288,137.51478 66.19911,137.88612 -0.0592,0.17738 -11.77223,-8.15326 -26.02913,-18.51255 z m 372.15003,18.29422 c 0.19466,-0.88441 66.00564,-137.67192 66.23411,-137.66695 0.16436,0.003 31.9046,65.81004 32.12496,66.60408 0.0385,0.13867 -0.87831,0.93249 -2.03731,1.76404 -1.159,0.83154 -17.94266,13.01125 -37.29702,27.06602 -66.20875,48.07951 -59.20932,43.07133 -59.02474,42.23281 z"
       id="path2996"
       style="fill:#000000" />
  </g>
</svg>
